solid base_models/icosahedron_2_1_unchanged
	facet normal 0.18759247404496268 0.30353099906659214 0.93417235898271289 
		outer loop
			vertex 0.58778525230000001 0. 0. 
			vertex -0.26286555610000001 0.52573111210000001 0. 
			vertex -0.26286555610000001 -0.42532540410000003 0.30901699430000001 
		endloop
	endfacet
	facet normal -0.18759247404496268 -0.30353099906659214 0.93417235898271289 
		outer loop
			vertex 0.58778525230000001 0. 0. 
			vertex -0.26286555610000001 0.52573111210000001 0. 
			vertex -0.26286555610000001 -0.42532540410000003 -0.30901699430000001 
		endloop
	endfacet
	facet normal -0.18759247403982923 0.7946544722825809 -0.57735026921697097 
		outer loop
			vertex 0.58778525230000001 0. 0. 
			vertex -0.26286555610000001 -0.42532540410000003 -0.30901699430000001 
			vertex -0.26286555610000001 0.1624598481 0.49999999989999999 
		endloop
	endfacet
	facet normal -0.18759247405654564 -0.98224694638229559 0. 
		outer loop
			vertex 0.58778525230000001 0. 0. 
			vertex -0.26286555610000001 0.1624598481 0.49999999989999999 
			vertex -0.26286555610000001 0.1624598481 -0.49999999989999999 
		endloop
	endfacet
	facet normal 0.18759247403982923 -0.7946544722825809 -0.57735026921697097 
		outer loop
			vertex 0.58778525230000001 0. 0. 
			vertex -0.26286555610000001 -0.42532540410000003 0.30901699430000001 
			vertex -0.26286555610000001 0.1624598481 -0.49999999989999999 
		endloop
	endfacet
	facet normal 0.79465447219266094 0.1875924741009922 0.57735026932086231 
		outer loop
			vertex -0.26286555610000001 0.52573111210000001 0. 
			vertex -0.26286555610000001 -0.42532540410000003 0.30901699430000001 
			vertex 0.26286555610000001 -0.1624598481 -0.49999999989999999 
		endloop
	endfacet
	facet normal -0.79465447219266094 -0.1875924741009922 0.57735026932086231 
		outer loop
			vertex -0.26286555610000001 0.52573111210000001 0. 
			vertex -0.26286555610000001 -0.42532540410000003 -0.30901699430000001 
			vertex 0.26286555610000001 -0.1624598481 0.49999999989999999 
		endloop
	endfacet
	facet normal -0.79465447218841745 0.49112347328787348 -0.3568220898663696 
		outer loop
			vertex -0.26286555610000001 -0.42532540410000003 -0.30901699430000001 
			vertex -0.26286555610000001 0.1624598481 0.49999999989999999 
			vertex 0.26286555610000001 0.42532540410000003 -0.30901699430000001 
		endloop
	endfacet
	facet normal -0.79465447223157748 -0.60706199828547425 -0. 
		outer loop
			vertex -0.26286555610000001 0.1624598481 0.49999999989999999 
			vertex -0.26286555610000001 0.1624598481 -0.49999999989999999 
			vertex 0.26286555610000001 -0.52573111210000001 0. 
		endloop
	endfacet
	facet normal 0.79465447218841745 -0.49112347328787348 -0.3568220898663696 
		outer loop
			vertex -0.26286555610000001 -0.42532540410000003 0.30901699430000001 
			vertex -0.26286555610000001 0.1624598481 -0.49999999989999999 
			vertex 0.26286555610000001 0.42532540410000003 0.30901699430000001 
		endloop
	endfacet
	facet normal -0.79465447223157748 -0.60706199828547425 0. 
		outer loop
			vertex -0.26286555610000001 0.52573111210000001 0. 
			vertex 0.26286555610000001 -0.1624598481 -0.49999999989999999 
			vertex 0.26286555610000001 -0.1624598481 0.49999999989999999 
		endloop
	endfacet
	facet normal -0.79465447218841745 0.49112347328787348 0.3568220898663696 
		outer loop
			vertex -0.26286555610000001 -0.42532540410000003 -0.30901699430000001 
			vertex 0.26286555610000001 -0.1624598481 0.49999999989999999 
			vertex 0.26286555610000001 0.42532540410000003 -0.30901699430000001 
		endloop
	endfacet
	facet normal -0.79465447219266083 -0.18759247410099222 -0.57735026932086231 
		outer loop
			vertex -0.26286555610000001 0.1624598481 0.49999999989999999 
			vertex 0.26286555610000001 0.42532540410000003 -0.30901699430000001 
			vertex 0.26286555610000001 -0.52573111210000001 0. 
		endloop
	endfacet
	facet normal -0.79465447219266083 -0.18759247410099222 0.57735026932086231 
		outer loop
			vertex -0.26286555610000001 0.1624598481 -0.49999999989999999 
			vertex 0.26286555610000001 -0.52573111210000001 0. 
			vertex 0.26286555610000001 0.42532540410000003 0.30901699430000001 
		endloop
	endfacet
	facet normal 0.79465447218841745 -0.49112347328787348 0.3568220898663696 
		outer loop
			vertex -0.26286555610000001 -0.42532540410000003 0.30901699430000001 
			vertex 0.26286555610000001 -0.1624598481 -0.49999999989999999 
			vertex 0.26286555610000001 0.42532540410000003 0.30901699430000001 
		endloop
	endfacet
	facet normal -0.18759247405654564 -0.98224694638229559 0. 
		outer loop
			vertex 0.26286555610000001 -0.1624598481 -0.49999999989999999 
			vertex 0.26286555610000001 -0.1624598481 0.49999999989999999 
			vertex -0.58778525230000001 0. 0. 
		endloop
	endfacet
	facet normal -0.1875924740398292 0.7946544722825809 0.57735026921697108 
		outer loop
			vertex 0.26286555610000001 -0.1624598481 0.49999999989999999 
			vertex 0.26286555610000001 0.42532540410000003 -0.30901699430000001 
			vertex -0.58778525230000001 0. 0. 
		endloop
	endfacet
	facet normal -0.18759247404496268 -0.30353099906659214 -0.93417235898271278 
		outer loop
			vertex 0.26286555610000001 0.42532540410000003 -0.30901699430000001 
			vertex 0.26286555610000001 -0.52573111210000001 0. 
			vertex -0.58778525230000001 0. 0. 
		endloop
	endfacet
	facet normal -0.18759247404496268 -0.30353099906659214 0.93417235898271278 
		outer loop
			vertex 0.26286555610000001 -0.52573111210000001 0. 
			vertex 0.26286555610000001 0.42532540410000003 0.30901699430000001 
			vertex -0.58778525230000001 0. 0. 
		endloop
	endfacet
	facet normal 0.1875924740398292 -0.7946544722825809 0.57735026921697108 
		outer loop
			vertex 0.26286555610000001 -0.1624598481 -0.49999999989999999 
			vertex 0.26286555610000001 0.42532540410000003 0.30901699430000001 
			vertex -0.58778525230000001 0. 0. 
		endloop
	endfacet
endsolid base_models/icosahedron_2_1_unchanged