solid base_models/icosahedron_3_2_unchanged
	facet normal -0.93417235896271589 -0. -0.35682208977308999 
		outer loop
			vertex 0.80901699437494745 0.5 0. 
			vertex 0.80901699437494745 -0.5 0. 
			vertex 0.5 0. 0.80901699437494745 
		endloop
	endfacet
	facet normal 0.93417235896271589 0. -0.35682208977308999 
		outer loop
			vertex 0.80901699437494745 0.5 0. 
			vertex 0.80901699437494745 -0.5 0. 
			vertex 0.5 0. -0.80901699437494745 
		endloop
	endfacet
	facet normal -0.57735026918962584 0.77459666924148352 -0.2581988897471611 
		outer loop
			vertex 0.80901699437494745 0.5 0. 
			vertex 0.5 0. -0.80901699437494745 
			vertex 0. -0.085410196624968515 0.052786404500042017 
		endloop
	endfacet
	facet normal -0.35682208977308988 0.41777457946839336 -0.83554915893678694 
		outer loop
			vertex 0.80901699437494745 0.5 0. 
			vertex 0. -0.085410196624968515 0.052786404500042017 
			vertex 0. 0.80901699437494745 0.5 
		endloop
	endfacet
	facet normal -0.57735026918962584 -0.57735026918962584 -0.57735026918962584 
		outer loop
			vertex 0.80901699437494745 0.5 0. 
			vertex 0.5 0. 0.80901699437494745 
			vertex 0. 0.80901699437494745 0.5 
		endloop
	endfacet
	facet normal -0.57735026918962584 -0.77459666924148352 0.2581988897471611 
		outer loop
			vertex 0.80901699437494745 -0.5 0. 
			vertex 0.5 0. 0.80901699437494745 
			vertex 0. 0.085410196624968515 -0.052786404500042017 
		endloop
	endfacet
	facet normal -0.57735026918962584 0.57735026918962584 0.57735026918962584 
		outer loop
			vertex 0.80901699437494745 -0.5 0. 
			vertex 0.5 0. -0.80901699437494745 
			vertex 0. -0.80901699437494745 -0.5 
		endloop
	endfacet
	facet normal -0. -0.99512484865801931 -0.098623200025928892 
		outer loop
			vertex 0.5 0. -0.80901699437494745 
			vertex 0. -0.085410196624968515 0.052786404500042017 
			vertex -0.5 0. -0.80901699437494745 
		endloop
	endfacet
	facet normal -0.35682208977308988 -0.41777457946839336 0.83554915893678672 
		outer loop
			vertex 0. -0.085410196624968515 0.052786404500042017 
			vertex 0. 0.80901699437494745 0.5 
			vertex -0.80901699437494745 0.5 0. 
		endloop
	endfacet
	facet normal 0. 0.35682208977308999 0.93417235896271589 
		outer loop
			vertex 0.5 0. 0.80901699437494745 
			vertex 0. 0.80901699437494745 0.5 
			vertex -0.5 0. 0.80901699437494745 
		endloop
	endfacet
	facet normal -0.35682208977308988 -0.41777457946839336 0.83554915893678694 
		outer loop
			vertex 0.80901699437494745 -0.5 0. 
			vertex 0. 0.085410196624968515 -0.052786404500042017 
			vertex 0. -0.80901699437494745 -0.5 
		endloop
	endfacet
	facet normal -0. -0.35682208977308999 -0.93417235896271589 
		outer loop
			vertex 0.5 0. -0.80901699437494745 
			vertex 0. -0.80901699437494745 -0.5 
			vertex -0.5 0. -0.80901699437494745 
		endloop
	endfacet
	facet normal 0.57735026918962573 0.77459666924148352 -0.2581988897471611 
		outer loop
			vertex 0. -0.085410196624968515 0.052786404500042017 
			vertex -0.5 0. -0.80901699437494745 
			vertex -0.80901699437494745 0.5 0. 
		endloop
	endfacet
	facet normal -0.57735026918962584 0.57735026918962584 0.57735026918962584 
		outer loop
			vertex 0. 0.80901699437494745 0.5 
			vertex -0.80901699437494745 0.5 0. 
			vertex -0.5 0. 0.80901699437494745 
		endloop
	endfacet
	facet normal 0. 0.99512484865801931 0.098623200025928892 
		outer loop
			vertex 0.5 0. 0.80901699437494745 
			vertex 0. 0.085410196624968515 -0.052786404500042017 
			vertex -0.5 0. 0.80901699437494745 
		endloop
	endfacet
	facet normal -0.35682208977308988 0.41777457946839336 -0.83554915893678672 
		outer loop
			vertex 0. 0.085410196624968515 -0.052786404500042017 
			vertex 0. -0.80901699437494745 -0.5 
			vertex -0.80901699437494745 -0.5 0. 
		endloop
	endfacet
	facet normal 0.57735026918962584 0.57735026918962584 0.57735026918962584 
		outer loop
			vertex 0. -0.80901699437494745 -0.5 
			vertex -0.5 0. -0.80901699437494745 
			vertex -0.80901699437494745 -0.5 0. 
		endloop
	endfacet
	facet normal 0.93417235896271589 0. 0.35682208977308999 
		outer loop
			vertex -0.5 0. -0.80901699437494745 
			vertex -0.80901699437494745 0.5 0. 
			vertex -0.80901699437494745 -0.5 0. 
		endloop
	endfacet
	facet normal 0.93417235896271589 0. -0.35682208977308999 
		outer loop
			vertex -0.80901699437494745 0.5 0. 
			vertex -0.5 0. 0.80901699437494745 
			vertex -0.80901699437494745 -0.5 0. 
		endloop
	endfacet
	facet normal 0.57735026918962573 -0.77459666924148352 0.2581988897471611 
		outer loop
			vertex 0. 0.085410196624968515 -0.052786404500042017 
			vertex -0.5 0. 0.80901699437494745 
			vertex -0.80901699437494745 -0.5 0. 
		endloop
	endfacet
endsolid base_models/icosahedron_3_2_unchanged