solid base_models/icosahedron_3_1_unchanged
	facet normal 0.35682208977308999 0. 0.93417235896271589 
		outer loop
			vertex -0.30901699437494745 0.5 0. 
			vertex -0.30901699437494745 -0.5 0. 
			vertex 0.5 0. -0.30901699437494745 
		endloop
	endfacet
	facet normal -0.35682208977308999 0. 0.93417235896271589 
		outer loop
			vertex -0.30901699437494745 0.5 0. 
			vertex -0.30901699437494745 -0.5 0. 
			vertex 0.5 0. 0.30901699437494745 
		endloop
	endfacet
	facet normal -0.57735026918962562 -0.77459666924148329 0.25819888974716115 
		outer loop
			vertex -0.30901699437494745 0.5 0. 
			vertex 0.5 0. 0.30901699437494745 
			vertex 0. 0.58541019662496852 0.94721359549995798 
		endloop
	endfacet
	facet normal 0.93417235896271567 0.15957568972123229 -0.31915137944246469 
		outer loop
			vertex -0.30901699437494745 0.5 0. 
			vertex 0. 0.58541019662496852 0.94721359549995798 
			vertex 0. -0.30901699437494745 0.5 
		endloop
	endfacet
	facet normal -0.57735026918962584 -0.57735026918962584 -0.57735026918962584 
		outer loop
			vertex -0.30901699437494745 0.5 0. 
			vertex 0.5 0. -0.30901699437494745 
			vertex 0. -0.30901699437494745 0.5 
		endloop
	endfacet
	facet normal -0.57735026918962562 0.77459666924148329 -0.25819888974716115 
		outer loop
			vertex -0.30901699437494745 -0.5 0. 
			vertex 0.5 0. -0.30901699437494745 
			vertex 0. -0.58541019662496852 -0.94721359549995798 
		endloop
	endfacet
	facet normal -0.57735026918962584 0.57735026918962584 0.57735026918962584 
		outer loop
			vertex -0.30901699437494745 -0.5 0. 
			vertex 0.5 0. 0.30901699437494745 
			vertex 0. 0.30901699437494745 -0.5 
		endloop
	endfacet
	facet normal 0. -0.7369259589108581 0.67597346921555457 
		outer loop
			vertex 0.5 0. 0.30901699437494745 
			vertex 0. 0.58541019662496852 0.94721359549995798 
			vertex -0.5 0. 0.30901699437494745 
		endloop
	endfacet
	facet normal 0.93417235896271567 -0.15957568972123229 0.31915137944246458 
		outer loop
			vertex 0. 0.58541019662496852 0.94721359549995798 
			vertex 0. -0.30901699437494745 0.5 
			vertex 0.30901699437494745 0.5 0. 
		endloop
	endfacet
	facet normal -0. -0.93417235896271589 -0.35682208977308999 
		outer loop
			vertex 0.5 0. -0.30901699437494745 
			vertex 0. -0.30901699437494745 0.5 
			vertex -0.5 0. -0.30901699437494745 
		endloop
	endfacet
	facet normal 0.93417235896271567 -0.15957568972123229 0.31915137944246469 
		outer loop
			vertex -0.30901699437494745 -0.5 0. 
			vertex 0. -0.58541019662496852 -0.94721359549995798 
			vertex 0. 0.30901699437494745 -0.5 
		endloop
	endfacet
	facet normal 0. 0.93417235896271589 0.35682208977308999 
		outer loop
			vertex 0.5 0. 0.30901699437494745 
			vertex 0. 0.30901699437494745 -0.5 
			vertex -0.5 0. 0.30901699437494745 
		endloop
	endfacet
	facet normal 0.57735026918962584 -0.77459666924148352 0.25819888974716126 
		outer loop
			vertex 0. 0.58541019662496852 0.94721359549995798 
			vertex -0.5 0. 0.30901699437494745 
			vertex 0.30901699437494745 0.5 0. 
		endloop
	endfacet
	facet normal -0.57735026918962584 0.57735026918962584 0.57735026918962584 
		outer loop
			vertex 0. -0.30901699437494745 0.5 
			vertex 0.30901699437494745 0.5 0. 
			vertex -0.5 0. -0.30901699437494745 
		endloop
	endfacet
	facet normal 0. 0.7369259589108581 -0.67597346921555457 
		outer loop
			vertex 0.5 0. -0.30901699437494745 
			vertex 0. -0.58541019662496852 -0.94721359549995798 
			vertex -0.5 0. -0.30901699437494745 
		endloop
	endfacet
	facet normal 0.93417235896271567 0.15957568972123229 -0.31915137944246458 
		outer loop
			vertex 0. -0.58541019662496852 -0.94721359549995798 
			vertex 0. 0.30901699437494745 -0.5 
			vertex 0.30901699437494745 -0.5 0. 
		endloop
	endfacet
	facet normal 0.57735026918962584 0.57735026918962584 0.57735026918962584 
		outer loop
			vertex 0. 0.30901699437494745 -0.5 
			vertex -0.5 0. 0.30901699437494745 
			vertex 0.30901699437494745 -0.5 0. 
		endloop
	endfacet
	facet normal -0.35682208977308999 0. -0.93417235896271589 
		outer loop
			vertex -0.5 0. 0.30901699437494745 
			vertex 0.30901699437494745 0.5 0. 
			vertex 0.30901699437494745 -0.5 0. 
		endloop
	endfacet
	facet normal -0.35682208977308999 0. 0.93417235896271589 
		outer loop
			vertex 0.30901699437494745 0.5 0. 
			vertex -0.5 0. -0.30901699437494745 
			vertex 0.30901699437494745 -0.5 0. 
		endloop
	endfacet
	facet normal 0.57735026918962584 0.77459666924148352 -0.25819888974716126 
		outer loop
			vertex 0. -0.58541019662496852 -0.94721359549995798 
			vertex -0.5 0. -0.30901699437494745 
			vertex 0.30901699437494745 -0.5 0. 
		endloop
	endfacet
endsolid base_models/icosahedron_3_1_unchanged